<svg width="105" height="43" viewBox="0 0 105 43" fill="none" xmlns="http://www.w3.org/2000/svg">
<g filter="url(#filter0_d_242_6)">
<path d="M16.2787 7.09314H14.1395V8.16272H16.2787V7.09314Z" fill="black"/>
<path d="M16.2787 9.2323H14.1395V10.3019H16.2787V9.2323Z" fill="black"/>
<path d="M16.2787 11.3715H14.1395V12.441H16.2787V11.3715Z" fill="black"/>
<path d="M23.7658 7.62793H22.6962C22.6959 7.9115 22.5831 8.18336 22.3826 8.38387C22.1821 8.58438 21.9102 8.69718 21.6266 8.69751V9.7671C22.1938 9.76646 22.7375 9.54088 23.1386 9.13985C23.5396 8.73881 23.7652 8.19508 23.7658 7.62793Z" fill="black"/>
<path d="M26.4398 10.3019V9.2323C26.1563 9.23197 25.8844 9.11917 25.6839 8.91866C25.4834 8.71815 25.3706 8.44629 25.3702 8.16272H24.3007C24.3013 8.72987 24.5269 9.2736 24.9279 9.67464C25.3289 10.0757 25.8727 10.3013 26.4398 10.3019Z" fill="black"/>
<path d="M32.0545 33.5809C31.1517 33.745 30.2308 33.7862 29.3169 33.7032L20.0182 32.8578C19.8687 32.8442 19.7303 32.7735 19.6316 32.6604C19.5329 32.5473 19.4816 32.4006 19.4884 32.2506C19.4952 32.1007 19.5595 31.9591 19.6679 31.8554C19.7764 31.7516 19.9207 31.6937 20.0707 31.6936H27.2419C27.5965 31.693 27.9365 31.5518 28.1871 31.3009C28.4378 31.05 28.5787 30.71 28.5789 30.3553V30.3428C28.5783 30.0618 28.4871 29.7885 28.3189 29.5634L27.0944 27.9315C27.0168 27.8276 26.9748 27.7015 26.9745 27.5719V27.4802C26.9745 27.3616 27.0097 27.2456 27.0756 27.147C27.1414 27.0484 27.2351 26.9715 27.3447 26.9261C27.4542 26.8808 27.5748 26.8689 27.6911 26.892C27.8075 26.9152 27.9143 26.9723 27.9982 27.0561L30.3399 29.3978C30.3896 29.4475 30.4485 29.4868 30.5134 29.5137C30.5783 29.5406 30.6478 29.5544 30.7181 29.5544H36.6008V28.4848H30.9395L28.7546 26.2997C28.6996 26.2449 28.6409 26.1939 28.5789 26.1471V14.0455C28.5789 13.9036 28.5225 13.7676 28.4223 13.6673C28.322 13.567 28.1859 13.5107 28.0441 13.5107H27.5093V11.9063H28.3115C28.8079 11.9063 29.284 11.7091 29.635 11.3581C29.9861 11.007 30.1833 10.5309 30.1833 10.0345C30.1833 9.53809 29.9861 9.062 29.635 8.71097C29.284 8.35994 28.8079 8.16274 28.3115 8.16274H28.2562C28.524 7.84191 28.6616 7.43233 28.6421 7.01492C28.6225 6.5975 28.4471 6.20261 28.1505 5.90825C27.8539 5.6139 27.4576 5.44148 27.0401 5.42507C26.6225 5.40866 26.214 5.54944 25.8952 5.81962C25.8446 5.2899 25.5984 4.79806 25.2047 4.44012C24.8109 4.08219 24.2979 3.88386 23.7658 3.88386C23.2336 3.88386 22.7206 4.08219 22.3269 4.44012C21.9331 4.79806 21.6869 5.2899 21.6363 5.81962C21.3175 5.54944 20.909 5.40866 20.4914 5.42507C20.0739 5.44148 19.6777 5.6139 19.3811 5.90825C19.0845 6.20261 18.909 6.5975 18.8895 7.01492C18.8699 7.43233 19.0076 7.84191 19.2753 8.16274H19.22C18.9425 8.16249 18.6684 8.22431 18.4178 8.3437V6.02357C18.4178 5.17256 18.0798 4.3564 17.478 3.75464C16.8763 3.15288 16.0601 2.81482 15.2091 2.81482C14.3581 2.81482 13.5419 3.15288 12.9402 3.75464C12.3384 4.3564 12.0003 5.17256 12.0003 6.02357V13.5107H11.4655C11.3237 13.5107 11.1877 13.567 11.0874 13.6673C10.9871 13.7676 10.9307 13.9036 10.9307 14.0455V16.3971L8.05898 18.8586H4.51324V19.9282H8.25679C8.38444 19.9282 8.50788 19.8825 8.6048 19.7994L11.7045 17.1426C12.0231 16.8696 12.4289 16.7195 12.8484 16.7194C12.8923 16.7194 12.9351 16.7324 12.9715 16.7568C13.0079 16.7811 13.0363 16.8157 13.0531 16.8562C13.0698 16.8966 13.0742 16.9412 13.0656 16.9841C13.0571 17.0271 13.036 17.0665 13.005 17.0975L11.0874 19.0152C11.0126 19.09 10.9616 19.1853 10.941 19.289C10.9204 19.3928 10.931 19.5003 10.9714 19.598C11.0119 19.6958 11.0805 19.7793 11.1684 19.838C11.2564 19.8968 11.3598 19.9282 11.4655 19.9282H17.0809C17.1518 19.9282 17.2198 19.9563 17.2699 20.0065C17.3201 20.0566 17.3483 20.1246 17.3483 20.1956C17.3483 20.2665 17.3201 20.3345 17.2699 20.3846C17.2198 20.4348 17.1518 20.463 17.0809 20.463H13.0699C12.9281 20.463 12.7921 20.5193 12.6918 20.6196C12.5915 20.7199 12.5351 20.8559 12.5351 20.9977C12.5351 21.1396 12.5915 21.2756 12.6918 21.3759C12.7921 21.4762 12.9281 21.5325 13.0699 21.5325H18.6852C18.7562 21.5325 18.8242 21.5607 18.8743 21.6109C18.9245 21.661 18.9526 21.729 18.9526 21.7999C18.9526 21.8709 18.9245 21.9389 18.8743 21.989C18.8242 22.0392 18.7562 22.0673 18.6852 22.0673H13.0699C12.9281 22.0673 12.7921 22.1237 12.6918 22.224C12.5915 22.3243 12.5351 22.4603 12.5351 22.6021C12.5351 22.744 12.5915 22.88 12.6918 22.9803C12.7921 23.0806 12.9281 23.1369 13.0699 23.1369H17.6157C17.6866 23.1369 17.7546 23.1651 17.8047 23.2152C17.8549 23.2654 17.883 23.3334 17.883 23.4043C17.883 23.4752 17.8549 23.5432 17.8047 23.5934C17.7546 23.6435 17.6866 23.6717 17.6157 23.6717H13.0699C12.9281 23.6717 12.7921 23.7281 12.6918 23.8283C12.5915 23.9286 12.5351 24.0647 12.5351 24.2065C12.5351 24.3483 12.5915 24.4844 12.6918 24.5847C12.7921 24.6849 12.9281 24.7413 13.0699 24.7413H15.7105C15.7187 24.7417 15.7264 24.7451 15.7323 24.7509C15.7381 24.7567 15.7417 24.7644 15.7422 24.7726C15.7427 24.7808 15.7401 24.7889 15.735 24.7954C15.7299 24.8019 15.7226 24.8062 15.7145 24.8076L12.0422 25.2667L8.40386 24.2271C8.35603 24.2134 8.30653 24.2065 8.25679 24.2065H4.51324V25.2761H8.18192L10.9307 26.0615V31.1588H10.932C10.9315 31.2291 10.945 31.2987 10.9716 31.3638C10.9982 31.4288 11.0375 31.4879 11.0871 31.5376C11.1367 31.5874 11.1957 31.6268 11.2607 31.6535C11.3256 31.6803 11.3953 31.6939 11.4655 31.6936H18.5248C18.4348 31.9319 18.4011 32.1877 18.4263 32.4412C18.4515 32.6946 18.535 32.9388 18.6702 33.1546C18.8055 33.3705 18.9887 33.5522 19.2058 33.6854C19.4228 33.8187 19.6677 33.9 19.9214 33.923L29.22 34.7686C29.5584 34.7995 29.8973 34.8149 30.2367 34.8148C30.9105 34.8148 31.5829 34.7542 32.2458 34.6337L36.6964 33.8245L36.5051 32.7721L32.0545 33.5809ZM17.3483 11.3715C17.3484 11.2297 17.4048 11.0938 17.5051 10.9935C17.6053 10.8933 17.7413 10.8369 17.883 10.8367H18.9526C19.5198 10.8373 20.0635 11.0629 20.4645 11.464C20.8656 11.865 21.0912 12.4087 21.0918 12.9759C21.0916 13.1177 21.0352 13.2536 20.935 13.3538C20.8347 13.4541 20.6988 13.5105 20.557 13.5107H19.4874C18.9203 13.51 18.3765 13.2844 17.9755 12.8834C17.5745 12.4824 17.3489 11.9386 17.3483 11.3715ZM19.22 9.23232H20.557C20.6628 9.23233 20.7662 9.20096 20.8541 9.1422C20.9421 9.08344 21.0106 8.99991 21.0511 8.90219C21.0916 8.80447 21.1022 8.69694 21.0815 8.59319C21.0609 8.48945 21.01 8.39416 20.9352 8.31937L20.133 7.51718C20.0773 7.4615 20.0331 7.39539 20.003 7.32264C19.9729 7.24988 19.9573 7.1719 19.9573 7.09316C19.9573 7.01441 19.9729 6.93643 20.003 6.86368C20.0331 6.79092 20.0773 6.72482 20.133 6.66913C20.1887 6.61345 20.2548 6.56928 20.3275 6.53914C20.4003 6.50901 20.4783 6.4935 20.557 6.4935C20.6358 6.4935 20.7137 6.50901 20.7865 6.53914C20.8592 6.56928 20.9253 6.61345 20.981 6.66913L21.7832 7.47132C21.858 7.54612 21.9533 7.59705 22.057 7.61769C22.1608 7.63833 22.2683 7.62774 22.366 7.58726C22.4638 7.54678 22.5473 7.47823 22.6061 7.39028C22.6648 7.30233 22.6962 7.19893 22.6962 7.09316V6.02357C22.6962 5.7399 22.8089 5.46785 23.0094 5.26726C23.21 5.06668 23.4821 4.95399 23.7658 4.95399C24.0494 4.95399 24.3215 5.06668 24.5221 5.26726C24.7227 5.46785 24.8353 5.7399 24.8353 6.02357V7.09316C24.8353 7.19893 24.8667 7.30233 24.9255 7.39028C24.9842 7.47823 25.0678 7.54678 25.1655 7.58726C25.2632 7.62774 25.3707 7.63833 25.4745 7.61769C25.5782 7.59705 25.6735 7.54612 25.7483 7.47132L26.5505 6.66913C26.6062 6.61345 26.6723 6.56928 26.745 6.53914C26.8178 6.50901 26.8958 6.4935 26.9745 6.4935C27.0533 6.4935 27.1312 6.50901 27.204 6.53914C27.2767 6.56928 27.3428 6.61345 27.3985 6.66913C27.4542 6.72482 27.4984 6.79092 27.5285 6.86368C27.5587 6.93643 27.5742 7.01441 27.5742 7.09316C27.5742 7.1719 27.5587 7.24988 27.5285 7.32264C27.4984 7.39539 27.4542 7.4615 27.3985 7.51718L26.5963 8.31937C26.5215 8.39416 26.4706 8.48945 26.45 8.59319C26.4293 8.69694 26.4399 8.80447 26.4804 8.90219C26.5209 8.99991 26.5894 9.08344 26.6774 9.1422C26.7653 9.20096 26.8687 9.23233 26.9745 9.23232H28.3115C28.5242 9.23232 28.7283 9.31684 28.8787 9.46728C29.0292 9.61772 29.1137 9.82176 29.1137 10.0345C29.1137 10.2473 29.0292 10.4513 28.8787 10.6017C28.7283 10.7522 28.5242 10.8367 28.3115 10.8367H26.9745C26.8327 10.8367 26.6966 10.893 26.5964 10.9933C26.4961 11.0936 26.4397 11.2297 26.4397 11.3715V11.6563C25.8157 11.0959 24.9967 10.8027 24.1588 10.8399C23.3208 10.877 22.531 11.2414 21.959 11.8549C21.7298 11.2423 21.3192 10.7143 20.782 10.3412C20.2448 9.96819 19.6066 9.7679 18.9526 9.76712H18.4646C18.52 9.61092 18.6223 9.47566 18.7575 9.37992C18.8928 9.28417 19.0543 9.23261 19.22 9.23232ZM26.372 13.5107H22.2291C22.3475 13.0513 22.6153 12.6443 22.9903 12.3537C23.3652 12.0632 23.8262 11.9055 24.3006 11.9055C24.7749 11.9055 25.2359 12.0632 25.6108 12.3537C25.9858 12.6443 26.2536 13.0513 26.372 13.5107ZM13.0699 6.02357C13.0699 5.45623 13.2953 4.91212 13.6965 4.51095C14.0976 4.10978 14.6417 3.8844 15.2091 3.8844C15.7764 3.8844 16.3205 4.10978 16.7217 4.51095C17.1229 4.91212 17.3483 5.45623 17.3483 6.02357V9.8591C17.0357 9.97001 16.7651 10.1749 16.5736 10.4457C16.3821 10.7165 16.2791 11.0398 16.2787 11.3715C16.2781 12.1613 16.5701 12.9234 17.0983 13.5107H13.0699V6.02357ZM14.1395 14.5802H15.2091V18.8586H14.1395V14.5802ZM12.8484 15.6498C12.5607 15.65 12.2747 15.694 12.0003 15.7805V14.5802H13.0699V15.6702C12.9968 15.6571 12.9227 15.6503 12.8484 15.6498ZM13.0699 18.5453V18.8586H12.7566L13.0699 18.5453ZM14.1395 26.0824L15.2091 25.9487V29.8676L14.1395 28.798V26.0824ZM12.0666 26.3415L13.0699 26.2161V28.7981L12.0003 29.8677V26.3457C12.0225 26.3457 12.0447 26.3443 12.0666 26.3415ZM12.7566 30.624L13.6047 29.7759L14.4528 30.624H12.7566ZM16.2787 25.7184C16.4415 25.6204 16.5763 25.482 16.67 25.3167C16.7637 25.1514 16.8131 24.9646 16.8135 24.7746C16.8135 24.7634 16.8135 24.7523 16.8129 24.7412H17.6157C17.8157 24.7411 18.0131 24.6961 18.1935 24.6096C18.3738 24.5231 18.5325 24.3972 18.6578 24.2413C18.7831 24.0854 18.8718 23.9033 18.9174 23.7085C18.963 23.5138 18.9643 23.3113 18.9213 23.1159C19.2502 23.057 19.545 22.877 19.7478 22.6115C19.9506 22.346 20.0467 22.0142 20.0171 21.6814C19.9875 21.3486 19.8343 21.039 19.5878 20.8135C19.3413 20.588 19.0193 20.4629 18.6852 20.463H18.3911C18.4306 20.2687 18.4264 20.0681 18.3789 19.8757C18.3313 19.6832 18.2416 19.5038 18.1162 19.3502C17.9909 19.1967 17.8329 19.0729 17.6539 18.9879C17.4748 18.9029 17.2791 18.8587 17.0809 18.8586H16.2787V14.5802H27.5093V25.8125C27.0784 25.8298 26.6708 26.013 26.3718 26.3238C26.0728 26.6345 25.9055 27.0489 25.9049 27.4802V27.5719C25.9057 27.933 26.0229 28.2843 26.2392 28.5735L27.4636 30.2053C27.4933 30.245 27.5094 30.2932 27.5095 30.3428V30.3553C27.5096 30.4264 27.4815 30.4947 27.4313 30.545C27.3811 30.5954 27.313 30.6238 27.2419 30.624H16.2787V25.7184Z" fill="black"/>
<path d="M49.2378 14.8148V4.15076H52.248C53.1758 4.15076 53.9961 4.35583 54.709 4.76599C55.4219 5.17615 55.9712 5.75964 56.3569 6.51648C56.7476 7.27332 56.9453 8.14246 56.9502 9.1239V9.80505C56.9502 10.8109 56.7549 11.6923 56.3643 12.4491C55.9785 13.2059 55.4243 13.787 54.7017 14.1923C53.9839 14.5975 53.1465 14.8051 52.1895 14.8148H49.2378ZM50.644 5.30798V13.6649H52.1235C53.2075 13.6649 54.0498 13.328 54.6504 12.6542C55.2559 11.9803 55.5586 11.0209 55.5586 9.77576V9.1532C55.5586 7.94226 55.2729 7.00232 54.7017 6.33337C54.1353 5.65955 53.3296 5.31775 52.2847 5.30798H50.644ZM62.1577 14.9613C61.0835 14.9613 60.2095 14.6097 59.5356 13.9066C58.8618 13.1986 58.5249 12.2538 58.5249 11.0721V10.8231C58.5249 10.037 58.6738 9.3363 58.9717 8.72107C59.2744 8.10095 59.6943 7.61755 60.2314 7.27087C60.7734 6.91931 61.3594 6.74353 61.9893 6.74353C63.0195 6.74353 63.8203 7.08289 64.3916 7.7616C64.9629 8.44031 65.2485 9.41199 65.2485 10.6766V11.2406H59.8799C59.8994 12.0219 60.1265 12.6542 60.561 13.1376C61.0005 13.6161 61.5571 13.8553 62.231 13.8553C62.7095 13.8553 63.1147 13.7577 63.4468 13.5624C63.7788 13.3671 64.0693 13.1083 64.3184 12.786L65.146 13.4305C64.4819 14.451 63.4858 14.9613 62.1577 14.9613ZM61.9893 7.85681C61.4424 7.85681 60.9834 8.05701 60.6123 8.4574C60.2412 8.85291 60.0117 9.40955 59.9238 10.1273H63.8936V10.0248C63.8545 9.3363 63.6689 8.80408 63.3369 8.4281C63.0049 8.04724 62.5557 7.85681 61.9893 7.85681ZM68.2954 14.8148H66.9404V3.56482H68.2954V14.8148ZM71.9429 14.8148H70.5879V6.89001H71.9429V14.8148ZM70.478 4.78796C70.478 4.56824 70.5439 4.38269 70.6758 4.23132C70.8125 4.07996 71.0127 4.00427 71.2764 4.00427C71.54 4.00427 71.7402 4.07996 71.877 4.23132C72.0137 4.38269 72.082 4.56824 72.082 4.78796C72.082 5.00769 72.0137 5.1908 71.877 5.33728C71.7402 5.48376 71.54 5.55701 71.2764 5.55701C71.0127 5.55701 70.8125 5.48376 70.6758 5.33728C70.5439 5.1908 70.478 5.00769 70.478 4.78796ZM76.7329 12.9764L78.6958 6.89001H80.0801L77.2383 14.8148H76.2056L73.3345 6.89001H74.7188L76.7329 12.9764ZM84.5698 14.9613C83.4956 14.9613 82.6216 14.6097 81.9478 13.9066C81.2739 13.1986 80.937 12.2538 80.937 11.0721V10.8231C80.937 10.037 81.0859 9.3363 81.3838 8.72107C81.6865 8.10095 82.1064 7.61755 82.6436 7.27087C83.1855 6.91931 83.7715 6.74353 84.4014 6.74353C85.4316 6.74353 86.2324 7.08289 86.8037 7.7616C87.375 8.44031 87.6606 9.41199 87.6606 10.6766V11.2406H82.292C82.3115 12.0219 82.5386 12.6542 82.9731 13.1376C83.4126 13.6161 83.9692 13.8553 84.6431 13.8553C85.1216 13.8553 85.5269 13.7577 85.8589 13.5624C86.1909 13.3671 86.4814 13.1083 86.7305 12.786L87.5581 13.4305C86.894 14.451 85.8979 14.9613 84.5698 14.9613ZM84.4014 7.85681C83.8545 7.85681 83.3955 8.05701 83.0244 8.4574C82.6533 8.85291 82.4238 9.40955 82.3359 10.1273H86.3057V10.0248C86.2666 9.3363 86.0811 8.80408 85.749 8.4281C85.417 8.04724 84.9678 7.85681 84.4014 7.85681ZM93.0659 8.10583C92.8608 8.07166 92.6387 8.05457 92.3994 8.05457C91.5107 8.05457 90.9077 8.43298 90.5903 9.18982V14.8148H89.2354V6.89001H90.5537L90.5757 7.80554C91.02 7.09753 91.6499 6.74353 92.4653 6.74353C92.729 6.74353 92.9292 6.77771 93.0659 6.84607V8.10583ZM97.043 12.83L98.8887 6.89001H100.339L97.1528 16.038C96.6597 17.3563 95.876 18.0155 94.8018 18.0155L94.5454 17.9935L94.04 17.8983V16.7997L94.4062 16.829C94.8652 16.829 95.2217 16.7362 95.4756 16.5507C95.7344 16.3651 95.9468 16.0258 96.1128 15.5326L96.4131 14.7269L93.5859 6.89001H95.0654L97.043 12.83ZM55.1191 28.1053H50.644V32.8148H49.2378V22.1508H55.8442V23.308H50.644V26.9554H55.1191V28.1053ZM56.7964 28.7792C56.7964 28.0028 56.9478 27.3046 57.2505 26.6844C57.5581 26.0643 57.9829 25.5858 58.5249 25.2489C59.0718 24.912 59.6943 24.7435 60.3926 24.7435C61.4717 24.7435 62.3433 25.1171 63.0073 25.8641C63.6763 26.6112 64.0107 27.6049 64.0107 28.8451V28.9403C64.0107 29.7118 63.8618 30.4052 63.564 31.0204C63.271 31.6307 62.8486 32.1068 62.2969 32.4486C61.75 32.7904 61.1201 32.9613 60.4072 32.9613C59.333 32.9613 58.4614 32.5878 57.7925 31.8407C57.1284 31.0936 56.7964 30.1049 56.7964 28.8744V28.7792ZM58.1587 28.9403C58.1587 29.8192 58.3613 30.5248 58.7666 31.057C59.1768 31.5892 59.7236 31.8553 60.4072 31.8553C61.0957 31.8553 61.6426 31.5868 62.0479 31.0497C62.4531 30.5077 62.6558 29.7509 62.6558 28.7792C62.6558 27.91 62.4482 27.2069 62.0332 26.6698C61.623 26.1278 61.0762 25.8568 60.3926 25.8568C59.7236 25.8568 59.1841 26.1229 58.7739 26.6552C58.3638 27.1874 58.1587 27.9491 58.1587 28.9403ZM65.3511 28.7792C65.3511 28.0028 65.5024 27.3046 65.8052 26.6844C66.1128 26.0643 66.5376 25.5858 67.0796 25.2489C67.6265 24.912 68.249 24.7435 68.9473 24.7435C70.0264 24.7435 70.8979 25.1171 71.562 25.8641C72.231 26.6112 72.5654 27.6049 72.5654 28.8451V28.9403C72.5654 29.7118 72.4165 30.4052 72.1187 31.0204C71.8257 31.6307 71.4033 32.1068 70.8516 32.4486C70.3047 32.7904 69.6748 32.9613 68.9619 32.9613C67.8877 32.9613 67.0161 32.5878 66.3472 31.8407C65.6831 31.0936 65.3511 30.1049 65.3511 28.8744V28.7792ZM66.7134 28.9403C66.7134 29.8192 66.916 30.5248 67.3213 31.057C67.7314 31.5892 68.2783 31.8553 68.9619 31.8553C69.6504 31.8553 70.1973 31.5868 70.6025 31.0497C71.0078 30.5077 71.2104 29.7509 71.2104 28.7792C71.2104 27.91 71.0029 27.2069 70.5879 26.6698C70.1777 26.1278 69.6309 25.8568 68.9473 25.8568C68.2783 25.8568 67.7388 26.1229 67.3286 26.6552C66.9185 27.1874 66.7134 27.9491 66.7134 28.9403ZM73.9351 28.7865C73.9351 27.5707 74.2231 26.5941 74.7993 25.8568C75.3755 25.1146 76.1299 24.7435 77.0625 24.7435C77.9902 24.7435 78.7251 25.0609 79.2671 25.6957V21.5648H80.6221V32.8148H79.377L79.311 31.9652C78.769 32.6293 78.0146 32.9613 77.0479 32.9613C76.1299 32.9613 75.3804 32.5853 74.7993 31.8334C74.2231 31.0814 73.9351 30.1 73.9351 28.889V28.7865ZM75.29 28.9403C75.29 29.8387 75.4756 30.5419 75.8467 31.0497C76.2178 31.5575 76.7305 31.8114 77.3848 31.8114C78.2441 31.8114 78.8716 31.4257 79.2671 30.6542V27.014C78.8618 26.267 78.2393 25.8934 77.3994 25.8934C76.7354 25.8934 76.2178 26.1498 75.8467 26.6625C75.4756 27.1752 75.29 27.9344 75.29 28.9403Z" fill="black"/>
</g>
<defs>
<filter id="filter0_d_242_6" x="0.513245" y="2.81482" width="103.826" height="40" filterUnits="userSpaceOnUse" color-interpolation-filters="sRGB">
<feFlood flood-opacity="0" result="BackgroundImageFix"/>
<feColorMatrix in="SourceAlpha" type="matrix" values="0 0 0 0 0 0 0 0 0 0 0 0 0 0 0 0 0 0 127 0" result="hardAlpha"/>
<feOffset dy="4"/>
<feGaussianBlur stdDeviation="2"/>
<feColorMatrix type="matrix" values="0 0 0 0 0 0 0 0 0 0 0 0 0 0 0 0 0 0 0.25 0"/>
<feBlend mode="normal" in2="BackgroundImageFix" result="effect1_dropShadow_242_6"/>
<feBlend mode="normal" in="SourceGraphic" in2="effect1_dropShadow_242_6" result="shape"/>
</filter>
</defs>
</svg>
